<svg width="1054" height="1438" viewBox="0 0 1054 1438" fill="none" xmlns="http://www.w3.org/2000/svg">
<path d="M1020.67 800.081C1020.67 837.617 987.972 872.014 934.137 897.105C880.41 922.146 806.094 937.669 723.935 937.669C641.777 937.669 567.461 922.146 513.734 897.105C459.899 872.014 427.201 837.617 427.201 800.081C427.201 762.544 459.899 728.147 513.734 703.056C567.461 678.016 641.777 662.492 723.935 662.492C806.094 662.492 880.41 678.016 934.137 703.056C987.972 728.147 1020.67 762.544 1020.67 800.081Z" stroke="url(#paint0_linear_16_2595)" stroke-width="2.66129"/>
<g opacity="0.6" filter="url(#filter0_f_16_2595)">
<circle cx="718.613" cy="718.645" r="186.29" fill="#2D96D3"/>
</g>
<g clip-path="url(#clip0_16_2595)">
<path opacity="0.6" d="M461.753 542.099L417.262 516.4L452.619 495.995L497.11 521.671L461.753 542.099Z" fill="white"/>
<path d="M463.503 551.756L400.538 515.4L450.891 486.337L513.856 522.694L463.503 551.756ZM403.56 515.4L463.503 550.007L510.811 522.694L450.869 488.087L403.56 515.4Z" fill="white"/>
<path d="M461.753 482.679L417.262 457.002L452.619 436.574L497.11 462.274L461.753 482.679Z" fill="#2D96D3"/>
<path d="M497.11 489.837V462.274L461.753 482.679V510.242L497.11 489.837Z" fill="#2D96D3"/>
<path d="M417.262 457.002V484.565L461.753 510.242V482.679L417.262 457.002Z" fill="#2D96D3"/>
<path d="M444.62 450.549L425.351 461.683V467.637L431.077 470.931V464.978L450.346 453.867L444.62 450.549Z" fill="white"/>
<path d="M456.868 457.616L437.599 468.727V474.703L443.303 477.998V472.045L462.571 460.911L456.868 457.616Z" fill="white"/>
<path d="M469.116 464.683L449.847 475.817V481.77L455.573 485.065V479.112L474.819 468L469.116 464.683Z" fill="white"/>
<path d="M444.62 450.549V452.958L448.301 455.025L450.346 453.867L444.62 450.549Z" fill="#1CA0C2"/>
<path d="M427.442 466.41L425.351 467.637L431.078 470.931V468.455L427.442 466.41Z" fill="#1CA0C2"/>
<path d="M444.62 450.549L425.351 461.683V467.637L427.442 466.41V462.887L444.643 452.958L444.62 450.549Z" fill="#222A5D"/>
<path d="M456.868 457.616V460.024L460.527 462.092L462.572 460.911L456.868 457.616Z" fill="#1CA0C2"/>
<path d="M439.667 473.476L437.599 474.703L443.303 477.998V475.521L439.667 473.476Z" fill="#1CA0C2"/>
<path d="M456.868 457.616L437.599 468.727V474.703L439.667 473.476V469.954L456.868 460.024V457.616Z" fill="#222A5D"/>
<path d="M469.115 464.683V467.091L472.774 469.159L474.819 468L469.115 464.683Z" fill="#1CA0C2"/>
<path d="M451.914 480.543L449.846 481.77L455.573 485.065V482.588L451.914 480.543Z" fill="#1CA0C2"/>
<path d="M469.116 464.683L449.847 475.817V481.77L451.914 480.543V477.021L469.116 467.091V464.683Z" fill="#222A5D"/>
<path d="M692.798 785.71C640.603 785.71 588.432 774.235 548.69 751.307C510.061 728.994 488.77 699.295 488.77 667.665C488.77 636.035 510.038 606.336 548.69 584.022C628.129 538.145 757.421 538.145 836.883 584.022C875.511 606.336 896.803 636.035 896.803 667.665C896.803 699.295 875.534 728.994 836.883 751.307C797.163 774.235 744.969 785.687 692.798 785.71ZM692.798 551.12C640.876 551.12 588.977 562.527 549.462 585.34C511.311 607.359 490.315 636.603 490.315 667.665C490.315 698.727 511.311 727.971 549.462 749.99C628.492 795.617 757.103 795.617 836.133 749.99C874.284 727.971 895.28 698.727 895.28 667.665C895.28 636.603 874.262 607.359 836.133 585.34C796.618 562.527 744.696 551.12 692.798 551.12Z" fill="#2D96D3"/>
<path opacity="0.5" d="M692.797 751.785C773.277 751.785 838.518 714.123 838.518 667.665C838.518 621.207 773.277 583.545 692.797 583.545C612.318 583.545 547.076 621.207 547.076 667.665C547.076 714.123 612.318 751.785 692.797 751.785Z" fill="#2D96D3"/>
<path d="M785.597 340.843L636.399 254.633C633.991 253.247 631.787 253.134 630.082 254.065L619.948 259.973L626.56 263.972V613.517C626.56 620.742 630.969 629.15 636.377 632.285L783.825 717.496L781.711 724.972L791.914 719.041H791.891C794.004 717.859 795.345 715.065 795.345 711.065V359.612C795.413 352.364 791.005 343.956 785.597 340.843Z" fill="url(#paint1_linear_16_2595)"/>
<path d="M775.235 724.495L626.06 638.284C620.629 635.149 616.244 626.741 616.244 619.515V268.085C616.244 260.859 620.652 257.519 626.06 260.655L775.235 346.865C780.666 350.001 785.051 358.408 785.051 365.634V717.087C785.051 724.313 780.666 727.63 775.235 724.495Z" fill="url(#paint2_linear_16_2595)"/>
<path d="M785.052 717.314L616.222 619.765V267.835L785.052 365.384V717.314Z" fill="#222A5D"/>
<path d="M758.08 724.063L607.406 637.012C601.748 633.74 598.271 627.718 598.271 621.197V290.217C598.271 285.582 603.27 282.696 607.292 285.014L757.967 372.087C763.625 375.359 767.101 381.381 767.101 387.902V718.882C767.101 723.495 762.102 726.38 758.08 724.063Z" fill="url(#paint3_linear_16_2595)"/>
<path d="M761.102 725.563C759.966 725.563 758.807 725.267 757.762 724.654L607.087 637.58C601.247 634.217 597.612 627.923 597.612 621.174V290.217C597.612 287.808 598.862 285.65 600.952 284.445C603.043 283.241 605.542 283.241 607.633 284.445L758.307 371.519C764.147 374.882 767.76 381.176 767.76 387.925V718.905C767.76 721.313 766.51 723.472 764.42 724.676C763.374 725.244 762.238 725.563 761.102 725.563ZM604.292 284.854C603.383 284.854 602.452 285.104 601.611 285.582C599.93 286.536 598.93 288.286 598.93 290.217V621.197C598.93 627.468 602.293 633.308 607.723 636.444L758.398 723.517C760.08 724.495 762.079 724.495 763.738 723.517C765.419 722.563 766.419 720.814 766.419 718.882V387.902C766.419 381.631 763.056 375.791 757.625 372.655L606.951 285.582C606.11 285.104 605.201 284.854 604.292 284.854Z" fill="white"/>
<path d="M711.794 318.507L689.48 305.623C688.73 305.191 688.116 304.01 688.116 303.01C688.116 302.01 688.73 301.533 689.48 301.965L711.794 314.849C712.543 315.28 713.157 316.462 713.157 317.462C713.157 318.484 712.543 318.939 711.794 318.507Z" fill="#0063AD"/>
<path opacity="0.2" d="M720.952 518.263C723.997 520.035 726.473 518.149 726.473 514.082V391.856C726.473 387.789 723.997 383.062 720.952 381.29L598.726 310.736C598.431 312.145 598.249 313.622 598.249 315.144V447.413L720.952 518.263Z" fill="#041860"/>
<path d="M629.128 472.976L629.151 476.021C626.538 474.817 623.22 474.272 619.289 474.544C605.451 475.567 589.341 486.496 583.319 498.971C581.638 502.425 580.933 505.629 581.047 508.447L578.252 507.515L581.274 511.969V511.946C583.774 515.831 588.863 518.013 595.908 517.49C609.746 516.468 625.856 505.538 631.878 493.063C634.9 486.814 634.832 481.384 632.264 477.612L629.128 472.976Z" fill="#F4A856"/>
<path d="M628.719 488.405C622.675 500.88 606.565 511.832 592.749 512.832C578.911 513.855 572.594 504.538 578.638 492.064C584.683 479.589 600.793 468.636 614.609 467.637C628.447 466.637 634.764 475.93 628.719 488.405Z" fill="#FCCC6B"/>
<path d="M628.719 488.405C622.675 500.88 606.565 511.832 592.749 512.832C578.911 513.855 572.594 504.538 578.638 492.064C584.683 479.589 600.793 468.636 614.609 467.637C628.447 466.637 634.764 475.93 628.719 488.405Z" fill="url(#paint4_radial_16_2595)"/>
<path d="M612.359 502.675C606.815 506.47 600.407 509.06 594.522 509.492C588.818 509.901 584.41 508.287 582.115 504.902C579.82 501.516 579.934 496.835 582.433 491.677C587.523 481.134 601.18 471.863 612.859 471.022C618.562 470.613 622.971 472.226 625.266 475.612C627.561 478.998 627.447 483.679 624.948 488.837C622.425 494.04 617.79 498.948 612.359 502.675ZM595.294 478.248C589.932 481.929 585.387 486.746 582.888 491.904C580.479 496.881 580.343 501.402 582.524 504.606C584.706 507.81 588.955 509.378 594.476 508.969C605.997 508.128 619.449 498.994 624.47 488.61C626.879 483.633 627.015 479.111 624.834 475.908C622.653 472.704 618.403 471.136 612.882 471.545C607.065 471.954 600.748 474.499 595.294 478.248Z" fill="#F4A856"/>
<path d="M624.697 488.701C619.63 499.176 606.11 508.356 594.498 509.219C582.887 510.06 577.593 502.266 582.66 491.791C587.727 481.316 601.247 472.136 612.858 471.272C624.47 470.409 629.764 478.225 624.697 488.701Z" fill="url(#paint5_radial_16_2595)"/>
<path d="M583.342 492.813C588.409 482.338 601.929 473.158 613.54 472.295C619.039 471.886 623.107 473.431 625.356 476.271C623.334 472.795 618.971 470.818 612.859 471.272C601.247 472.113 587.727 481.316 582.66 491.791C579.979 497.312 580.206 502.084 582.706 505.265C580.888 502.13 580.956 497.767 583.342 492.813Z" fill="#F4A856"/>
<path d="M628.06 487.451C622.016 499.926 605.906 510.878 592.09 511.878C585.478 512.355 580.57 510.492 577.934 507.015C580.365 511.082 585.546 513.377 592.749 512.832C606.587 511.81 622.698 500.88 628.719 488.405C631.878 481.906 631.65 476.248 628.765 472.499C631.014 476.226 630.946 481.475 628.06 487.451Z" fill="#FCE586"/>
<path d="M624.516 503.175C627.606 500.062 630.151 496.631 631.878 493.063C634.9 486.814 634.832 481.384 632.264 477.612L629.106 472.953C629.06 472.885 629.015 472.84 628.97 472.772C628.901 472.681 628.833 472.567 628.765 472.476C628.788 472.499 628.788 472.544 628.811 472.567C626.175 469.045 621.289 467.114 614.609 467.614C606.792 468.182 598.226 471.931 591.182 477.362L616.086 503.152H624.516V503.175Z" fill="#F4A856"/>
<path d="M705.136 391.379L527.762 288.967C526.376 288.172 525.126 288.127 524.149 288.672L521.513 290.217C521.513 290.217 522.127 290.308 522.74 290.399C522.422 291.149 522.241 292.08 522.241 293.171V415.374C522.241 419.442 524.717 424.168 527.762 425.94L705.136 528.352C705.477 528.556 705.795 528.693 706.113 528.783V530.17L708.772 528.624H708.749C709.931 527.943 710.658 526.375 710.658 524.148V401.945C710.658 397.878 708.181 393.151 705.136 391.379Z" fill="white"/>
<path d="M702.569 529.851L525.195 427.44C522.15 425.667 519.673 420.941 519.673 416.874V294.648C519.673 290.581 522.15 288.695 525.195 290.467L702.569 392.879C705.614 394.651 708.091 399.377 708.091 403.445V525.648C708.091 529.738 705.614 531.601 702.569 529.851Z" fill="#2D96D3"/>
<path d="M649.693 399.218V381.767L653.397 383.903C654.102 384.312 654.715 384.721 655.215 385.176C655.738 385.63 656.192 386.13 656.601 386.698C657.01 387.266 657.305 387.902 657.51 388.607C657.715 389.311 657.805 390.084 657.805 390.924C657.805 393.083 657.056 393.856 655.579 393.242C656.465 393.947 657.146 394.787 657.578 395.742C658.033 396.696 658.237 397.809 658.26 399.105C658.26 400.763 657.896 401.809 657.192 402.263C656.465 402.695 655.42 402.536 654.033 401.718L649.693 399.218ZM652.443 390.493L653.306 390.993C654.124 391.47 654.67 391.583 654.965 391.356C655.26 391.129 655.42 390.538 655.42 389.606C655.42 389.107 655.374 388.698 655.26 388.334C655.17 387.97 654.988 387.652 654.761 387.357C654.533 387.062 654.261 386.812 653.965 386.607C653.67 386.38 653.284 386.153 652.806 385.857L652.42 385.63V390.493H652.443ZM652.443 398.582L653.443 399.173C654.261 399.65 654.829 399.764 655.147 399.491C655.465 399.241 655.624 398.582 655.624 397.582C655.624 396.537 655.442 395.673 655.079 394.992C654.715 394.31 654.124 393.742 653.284 393.242L652.42 392.742V398.582H652.443Z" fill="white"/>
<path d="M659.26 404.74L662.327 389.061L665.19 390.72L668.258 409.943L665.69 408.466L665.077 404.058L662.463 402.559L661.85 406.24L659.26 404.74ZM662.759 400.65L664.781 401.809L663.781 394.06L662.759 400.65Z" fill="white"/>
<path d="M669.735 410.807V393.356L671.621 394.446L675.325 406.467V396.582L677.597 397.9V415.351L675.802 414.306L672.076 401.763V412.147L669.735 410.807Z" fill="white"/>
<path d="M679.869 416.647V399.196L682.618 400.786V408.353L685.595 402.49L688.231 404.013L685.345 410.148L688.526 421.623L685.777 420.032L683.164 410.33L682.618 411.148V418.215L679.869 416.647Z" fill="white"/>
<path d="M568.641 427.167L534.966 407.739V403.217L568.641 422.668V427.167Z" fill="white"/>
<path d="M610.019 451.072L576.344 431.621V427.122L610.019 446.572V451.072Z" fill="white"/>
<path d="M651.397 474.953L617.744 455.525V451.026L651.397 470.454V474.953Z" fill="white"/>
<path d="M692.798 498.858L659.123 479.407V474.908L692.798 494.358V498.858Z" fill="white"/>
<path opacity="0.2" d="M703.895 397.078L526.521 294.667C523.476 292.894 521 294.78 521 298.848V421.051C521 421.8 521.113 422.55 521.249 423.323C530.679 416.506 569.058 395.397 642.362 435.843C669.038 450.568 691.352 448.613 709.439 438.979V407.621C709.417 403.577 706.94 398.851 703.895 397.078Z" fill="white"/>
<path opacity="0.2" d="M593.182 386.675C618.086 383.471 638.9 375.837 656.192 366.111L525.195 290.467C522.15 288.695 519.673 290.581 519.673 294.648V411.602C532.739 401.309 555.098 391.583 593.182 386.675Z" fill="white"/>
<path d="M633.445 682.412L631.741 684.934C630.287 682.458 627.856 680.14 624.447 678.14C612.472 671.142 592.999 671.073 580.956 677.936C577.616 679.844 575.207 682.071 573.707 684.48L571.912 682.139L571.889 687.502C571.753 692.137 574.73 696.796 580.82 700.363C592.794 707.362 612.268 707.43 624.311 700.568C630.332 697.136 633.355 692.592 633.377 688.047L633.445 682.412Z" fill="#F4A856"/>
<path d="M624.379 694.932C612.336 701.817 592.863 701.726 580.888 694.728C568.913 687.729 568.959 676.504 581.002 669.619C593.045 662.734 612.518 662.825 624.493 669.824C636.468 676.822 636.422 688.047 624.379 694.932Z" fill="#FCCC6B"/>
<path d="M624.379 694.932C612.336 701.817 592.863 701.726 580.888 694.728C568.913 687.729 568.959 676.504 581.002 669.619C593.045 662.734 612.518 662.825 624.493 669.824C636.468 676.822 636.422 688.047 624.379 694.932Z" fill="url(#paint6_radial_16_2595)"/>
<path d="M602.837 697.432C596.111 697.432 589.386 695.932 584.273 692.956C579.319 690.07 576.615 686.23 576.638 682.162C576.661 678.095 579.41 674.277 584.387 671.437C594.544 665.62 611.04 665.711 621.152 671.596C626.106 674.482 628.81 678.322 628.787 682.389C628.764 686.457 626.015 690.274 621.038 693.115C615.994 696 609.427 697.432 602.837 697.432ZM602.565 667.642C596.066 667.642 589.59 669.051 584.614 671.891C579.819 674.641 577.161 678.277 577.138 682.162C577.115 686.048 579.751 689.729 584.523 692.501C594.498 698.318 610.745 698.386 620.766 692.66C625.56 689.911 628.219 686.275 628.241 682.389C628.264 678.504 625.628 674.823 620.857 672.051C615.835 669.119 609.2 667.642 602.565 667.642Z" fill="#F4A856"/>
<path d="M620.902 692.91C610.791 698.682 594.453 698.613 584.387 692.751C574.321 686.889 574.366 677.436 584.478 671.664C594.589 665.893 610.927 665.961 620.993 671.823C631.059 677.686 631.014 687.138 620.902 692.91Z" fill="url(#paint7_radial_16_2595)"/>
<path d="M584.478 672.891C594.59 667.12 610.927 667.188 620.994 673.05C625.743 675.823 628.242 679.39 628.492 683.003C628.787 678.981 626.311 674.914 621.016 671.801C610.95 665.938 594.612 665.87 584.501 671.641C579.184 674.686 576.639 678.754 576.911 682.776C577.184 679.185 579.706 675.618 584.478 672.891Z" fill="#F4A856"/>
<path d="M624.401 693.773C612.358 700.658 592.885 700.568 580.91 693.569C575.184 690.229 572.207 685.911 571.98 681.549C571.685 686.275 574.661 691.092 580.91 694.728C592.885 701.726 612.358 701.795 624.401 694.932C630.673 691.342 633.695 686.57 633.445 681.821C633.172 686.184 630.15 690.479 624.401 693.773Z" fill="#FCE586"/>
<path d="M638.741 674.891L637.036 677.413C635.582 674.936 633.151 672.618 629.742 670.619C617.768 663.62 598.294 663.552 586.251 670.414C582.911 672.323 580.502 674.55 579.002 676.958L577.207 674.618L577.185 679.981C577.048 684.616 580.025 689.274 586.115 692.842C598.09 699.84 617.563 699.908 629.606 693.046C635.628 689.615 638.65 685.07 638.672 680.526L638.741 674.891Z" fill="#F4A856"/>
<path d="M629.675 687.388C617.632 694.273 598.158 694.182 586.183 687.184C574.208 680.185 574.254 668.96 586.297 662.075C598.34 655.19 617.813 655.281 629.788 662.28C641.763 669.278 641.718 680.526 629.675 687.388Z" fill="#FCCC6B"/>
<path d="M629.675 687.388C617.632 694.273 598.158 694.182 586.183 687.184C574.208 680.185 574.254 668.96 586.297 662.075C598.34 655.19 617.813 655.281 629.788 662.28C641.763 669.278 641.718 680.526 629.675 687.388Z" fill="url(#paint8_radial_16_2595)"/>
<path d="M608.111 689.911C601.385 689.911 594.659 688.411 589.546 685.434C584.593 682.548 581.889 678.708 581.911 674.641C581.934 670.573 584.683 666.756 589.66 663.916C599.817 658.099 616.314 658.19 626.425 664.075C631.379 666.961 634.083 670.801 634.06 674.868C634.037 678.935 631.288 682.753 626.312 685.593C621.29 688.479 614.7 689.911 608.111 689.911ZM607.838 660.098C601.339 660.098 594.863 661.507 589.887 664.347C585.092 667.097 582.434 670.733 582.411 674.618C582.388 678.504 585.024 682.185 589.796 684.957C599.771 690.774 616.018 690.842 626.039 685.116C630.833 682.367 633.492 678.731 633.515 674.845C633.537 670.96 630.902 667.279 626.13 664.506C621.108 661.575 614.473 660.098 607.838 660.098Z" fill="#F4A856"/>
<path d="M626.174 685.366C616.063 691.138 599.725 691.069 589.659 685.207C579.593 679.344 579.638 669.892 589.75 664.12C599.862 658.349 616.199 658.417 626.265 664.279C636.332 670.164 636.286 679.594 626.174 685.366Z" fill="url(#paint9_radial_16_2595)"/>
<path d="M589.75 665.37C599.862 659.598 616.2 659.666 626.266 665.529C631.015 668.301 633.514 671.869 633.764 675.482C634.06 671.46 631.583 667.392 626.288 664.279C616.222 658.417 599.885 658.349 589.773 664.12C584.456 667.165 581.911 671.232 582.184 675.254C582.456 671.641 584.979 668.097 589.75 665.37Z" fill="#F4A856"/>
<path d="M629.675 686.229C617.632 693.114 598.158 693.023 586.183 686.025C580.457 682.685 577.48 678.367 577.253 674.004C576.958 678.731 579.934 683.548 586.183 687.184C598.158 694.182 617.632 694.25 629.675 687.388C635.946 683.798 638.968 679.026 638.718 674.277C638.446 678.64 635.423 682.935 629.675 686.229Z" fill="#FCE586"/>
<path d="M679.255 712.338L677.55 714.86C676.096 712.383 673.665 710.066 670.256 708.066C658.281 701.067 638.808 700.999 626.765 707.862C623.425 709.77 621.016 711.997 619.516 714.406L617.721 712.065L617.699 717.428C617.562 722.063 620.539 726.721 626.629 730.289C638.604 737.288 658.077 737.356 670.12 730.493C676.142 727.062 679.164 722.518 679.186 717.973L679.255 712.338Z" fill="#F4A856"/>
<path d="M679.256 712.322C679.3 702.521 665.572 694.514 648.592 694.438C631.613 694.362 617.813 702.245 617.769 712.046C617.725 721.848 631.453 729.855 648.433 729.931C665.412 730.007 679.212 722.123 679.256 712.322Z" fill="#FCCC6B"/>
<path d="M670.189 724.858C658.145 731.743 638.672 731.652 626.697 724.654C614.722 717.655 614.768 706.43 626.811 699.545C638.854 692.66 658.327 692.751 670.302 699.75C682.277 706.726 682.232 717.973 670.189 724.858Z" fill="url(#paint10_radial_16_2595)"/>
<path d="M648.647 727.358C641.922 727.358 635.196 725.858 630.083 722.881C625.129 719.996 622.425 716.155 622.448 712.088C622.471 708.021 625.22 704.203 630.197 701.363C640.354 695.546 656.85 695.637 666.962 701.522C671.916 704.408 674.62 708.248 674.597 712.315C674.574 716.383 671.825 720.2 666.848 723.04C661.804 725.926 655.237 727.358 648.647 727.358ZM648.375 697.545C641.876 697.545 635.4 698.954 630.424 701.795C625.629 704.544 622.971 708.18 622.948 712.065C622.925 715.951 625.561 719.632 630.333 722.404C640.308 728.221 656.555 728.289 666.576 722.563C671.37 719.814 674.029 716.178 674.052 712.293C674.074 708.407 671.438 704.726 666.667 701.954C661.645 699.022 654.987 697.545 648.375 697.545Z" fill="#F4A856"/>
<path d="M666.711 722.813C656.6 728.585 640.262 728.517 630.196 722.654C620.13 716.792 620.175 707.339 630.287 701.567C640.398 695.796 656.736 695.864 666.802 701.726C676.868 707.612 676.823 717.042 666.711 722.813Z" fill="url(#paint11_radial_16_2595)"/>
<path d="M630.287 702.817C640.399 697.046 656.736 697.114 666.803 702.976C671.552 705.748 674.051 709.316 674.301 712.929C674.597 708.907 672.12 704.817 666.825 701.726C656.759 695.864 640.422 695.796 630.31 701.567C624.993 704.612 622.448 708.68 622.72 712.702C622.97 709.089 625.515 705.544 630.287 702.817Z" fill="#F4A856"/>
<path d="M670.189 723.677C658.145 730.562 638.672 730.471 626.697 723.472C620.971 720.132 617.994 715.814 617.767 711.452C617.472 716.178 620.448 720.995 626.697 724.631C638.672 731.63 658.145 731.698 670.189 724.835C676.46 721.245 679.482 716.473 679.232 711.747C678.96 716.087 675.96 720.382 670.189 723.677Z" fill="#FCE586"/>
<path d="M617.767 722.995L616.063 725.517C614.609 723.04 612.177 720.723 608.769 718.723C596.794 711.724 577.32 711.656 565.277 718.518C561.937 720.427 559.529 722.654 558.029 725.063L556.234 722.722L556.211 728.085C556.075 732.72 559.051 737.378 565.141 740.946C577.116 747.944 596.589 748.013 608.632 741.15C614.654 737.719 617.676 733.175 617.699 728.63L617.767 722.995Z" fill="#F4A856"/>
<path d="M617.747 723C617.791 713.199 604.062 705.192 587.083 705.116C570.103 705.04 556.303 712.923 556.259 722.724C556.215 732.526 569.944 740.533 586.923 740.609C603.903 740.685 617.703 732.801 617.747 723Z" fill="#FCCC6B"/>
<path d="M608.7 735.515C596.657 742.4 577.183 742.309 565.208 735.311C553.234 728.312 553.279 717.087 565.322 710.202C577.365 703.317 596.839 703.408 608.813 710.406C620.788 717.382 620.743 728.63 608.7 735.515Z" fill="url(#paint12_radial_16_2595)"/>
<path d="M587.136 738.014C580.41 738.014 573.684 736.515 568.572 733.538C563.618 730.652 560.914 726.812 560.937 722.745C560.959 718.677 563.709 714.86 568.685 712.02C578.842 706.203 595.339 706.294 605.451 712.179C610.404 715.064 613.108 718.905 613.085 722.972C613.063 727.039 610.313 730.857 605.337 733.697C600.315 736.583 593.726 738.014 587.136 738.014ZM586.863 708.225C580.365 708.225 573.889 709.634 568.912 712.474C564.118 715.224 561.459 718.859 561.437 722.745C561.414 726.63 564.05 730.311 568.821 733.084C578.797 738.901 595.044 738.969 605.064 733.243C609.859 730.493 612.517 726.858 612.54 722.972C612.563 719.086 609.927 715.405 605.155 712.633C600.133 709.702 593.498 708.225 586.863 708.225Z" fill="#F4A856"/>
<path d="M605.201 733.493C595.089 739.264 578.752 739.196 568.686 733.334C558.619 727.471 558.665 718.018 568.776 712.247C578.888 706.475 595.226 706.543 605.292 712.406C615.358 718.268 615.313 727.698 605.201 733.493Z" fill="url(#paint13_radial_16_2595)"/>
<path d="M568.777 713.474C578.888 707.702 595.226 707.771 605.292 713.633C610.041 716.405 612.541 719.973 612.791 723.586C613.086 719.564 610.609 715.496 605.315 712.383C595.249 706.521 578.911 706.453 568.799 712.224C563.482 715.269 560.937 719.337 561.21 723.358C561.483 719.768 564.005 716.201 568.777 713.474Z" fill="#F4A856"/>
<path d="M608.7 734.333C596.657 741.218 577.183 741.128 565.208 734.129C559.482 730.789 556.506 726.471 556.278 722.109C555.983 726.835 558.96 731.652 565.208 735.288C577.183 742.286 596.657 742.355 608.7 735.492C614.971 731.902 617.993 727.13 617.744 722.381C617.471 726.767 614.449 731.061 608.7 734.333Z" fill="#FCE586"/>
<path d="M646.852 711.702L645.148 714.224C643.694 711.747 641.262 709.429 637.854 707.43C625.879 700.431 606.406 700.363 594.363 707.225C591.022 709.134 588.614 711.361 587.114 713.769L585.319 711.429L585.296 716.792C585.16 721.427 588.137 726.085 594.226 729.653C606.201 736.651 625.675 736.719 637.718 729.857C643.739 726.426 646.761 721.881 646.784 717.337L646.852 711.702Z" fill="#F4A856"/>
<path d="M646.837 711.68C646.88 701.879 633.152 693.872 616.172 693.796C599.193 693.72 585.393 701.603 585.349 711.404C585.305 721.205 599.034 729.213 616.013 729.289C632.992 729.365 646.793 721.481 646.837 711.68Z" fill="#FCCC6B"/>
<path d="M637.786 724.199C625.743 731.084 606.27 730.993 594.295 723.995C582.32 716.996 582.366 705.771 594.409 698.886C606.452 692.001 625.925 692.092 637.9 699.091C649.875 706.089 649.829 717.337 637.786 724.199Z" fill="url(#paint14_radial_16_2595)"/>
<path d="M616.244 726.721C609.518 726.721 602.792 725.222 597.68 722.245C592.726 719.359 590.022 715.519 590.045 711.452C590.068 707.384 592.817 703.567 597.793 700.727C607.95 694.91 624.447 695 634.559 700.886C639.512 703.771 642.216 707.612 642.194 711.679C642.171 715.746 639.421 719.564 634.445 722.404C629.401 725.267 622.834 726.721 616.244 726.721ZM615.971 696.909C609.473 696.909 602.997 698.318 598.021 701.158C593.226 703.908 590.567 707.543 590.545 711.429C590.522 715.315 593.158 718.996 597.93 721.768C607.905 727.585 624.152 727.653 634.172 721.927C638.967 719.177 641.626 715.542 641.648 711.656C641.671 707.771 639.035 704.09 634.263 701.317C629.242 698.386 622.584 696.909 615.971 696.909Z" fill="#F4A856"/>
<path d="M634.309 722.177C624.198 727.948 607.86 727.88 597.794 722.018C587.728 716.155 587.773 706.703 597.885 700.931C607.996 695.159 624.334 695.228 634.4 701.09C644.466 706.953 644.421 716.405 634.309 722.177Z" fill="url(#paint15_radial_16_2595)"/>
<path d="M597.885 702.158C607.996 696.387 624.334 696.455 634.4 702.317C639.149 705.089 641.649 708.657 641.899 712.27C642.194 708.248 639.717 704.18 634.423 701.067C624.357 695.205 608.019 695.137 597.908 700.908C592.59 703.953 590.045 708.021 590.318 712.043C590.568 708.452 593.113 704.908 597.885 702.158Z" fill="#F4A856"/>
<path d="M637.786 723.04C625.743 729.925 606.27 729.834 594.295 722.836C588.569 719.495 585.592 715.178 585.365 710.815C585.07 715.542 588.046 720.359 594.295 723.995C606.27 730.993 625.743 731.061 637.786 724.199C644.058 720.609 647.08 715.837 646.83 711.088C646.557 715.451 643.558 719.745 637.786 723.04Z" fill="#FCE586"/>
<path d="M654.805 705.544L653.101 708.066C651.646 705.589 649.215 703.272 645.807 701.272C633.832 694.273 614.358 694.205 602.315 701.068C598.975 702.976 596.566 705.203 595.067 707.612L593.272 705.271L593.249 710.634C593.113 715.269 596.089 719.927 602.179 723.495C614.154 730.493 633.627 730.562 645.67 723.699C651.692 720.268 654.714 715.724 654.737 711.179L654.805 705.544Z" fill="#F4A856"/>
<path d="M645.739 718.064C633.696 724.949 614.222 724.858 602.247 717.86C590.272 710.861 590.318 699.636 602.361 692.751C614.404 685.866 633.877 685.957 645.852 692.955C657.827 699.931 657.782 711.179 645.739 718.064Z" fill="#FCCC6B"/>
<path d="M645.739 718.064C633.696 724.949 614.222 724.858 602.247 717.86C590.272 710.861 590.318 699.636 602.361 692.751C614.404 685.866 633.877 685.957 645.852 692.955C657.827 699.931 657.782 711.179 645.739 718.064Z" fill="url(#paint16_radial_16_2595)"/>
<path d="M624.198 720.564C617.472 720.564 610.746 719.064 605.633 716.087C600.68 713.202 597.976 709.361 597.998 705.294C598.021 701.227 600.771 697.409 605.747 694.569C615.904 688.752 632.401 688.843 642.512 694.728C647.466 697.614 650.17 701.454 650.147 705.521C650.124 709.589 647.375 713.406 642.399 716.246C637.354 719.132 630.787 720.564 624.198 720.564ZM623.925 690.774C617.426 690.774 610.95 692.183 605.974 695.023C601.18 697.773 598.521 701.408 598.498 705.294C598.476 709.18 601.111 712.861 605.883 715.633C615.859 721.45 632.105 721.518 642.126 715.792C646.921 713.042 649.579 709.407 649.602 705.521C649.625 701.636 646.989 697.955 642.217 695.182C637.195 692.228 630.537 690.774 623.925 690.774Z" fill="#F4A856"/>
<path d="M642.262 716.019C632.15 721.791 615.812 721.722 605.746 715.86C595.68 709.997 595.725 700.545 605.837 694.773C615.949 689.002 632.286 689.07 642.353 694.932C652.419 700.817 652.373 710.247 642.262 716.019Z" fill="url(#paint17_radial_16_2595)"/>
<path d="M605.837 696.023C615.949 690.251 632.286 690.32 642.353 696.182C647.102 698.954 649.601 702.522 649.851 706.135C650.147 702.113 647.67 698.045 642.375 694.932C632.309 689.07 615.972 689.002 605.86 694.773C600.543 697.818 597.998 701.885 598.271 705.907C598.52 702.294 601.065 698.75 605.837 696.023Z" fill="#F4A856"/>
<path d="M645.739 716.882C633.696 723.767 614.222 723.677 602.247 716.678C596.521 713.338 593.545 709.02 593.317 704.658C593.022 709.384 595.999 714.201 602.247 717.837C614.222 724.835 633.696 724.904 645.739 718.041C652.01 714.451 655.032 709.679 654.782 704.93C654.51 709.316 651.51 713.588 645.739 716.882Z" fill="#FCE586"/>
<path d="M659.009 693.728L657.304 696.25C655.85 693.773 653.419 691.456 650.01 689.456C638.036 682.458 618.562 682.389 606.519 689.252C603.179 691.16 600.77 693.387 599.271 695.796L597.475 693.455L597.453 698.818C597.316 703.453 600.293 708.112 606.383 711.679C618.358 718.678 637.831 718.746 649.874 711.884C655.896 708.452 658.918 703.908 658.94 699.363L659.009 693.728Z" fill="#F4A856"/>
<path d="M659.021 693.722C659.065 683.921 645.336 675.914 628.357 675.838C611.378 675.761 597.577 683.645 597.533 693.446C597.489 703.247 611.218 711.254 628.198 711.331C645.177 711.407 658.977 703.523 659.021 693.722Z" fill="#FCCC6B"/>
<path d="M649.966 706.248C637.923 713.133 618.449 713.042 606.474 706.044C594.499 699.045 594.545 687.82 606.588 680.935C618.631 674.05 638.104 674.141 650.079 681.14C662.054 688.116 662.009 699.363 649.966 706.248Z" fill="url(#paint18_radial_16_2595)"/>
<path d="M628.401 708.748C621.675 708.748 614.949 707.248 609.836 704.271C604.883 701.386 602.179 697.545 602.201 693.478C602.224 689.411 604.973 685.593 609.95 682.753C620.107 676.936 636.604 677.027 646.715 682.912C651.669 685.798 654.373 689.638 654.35 693.705C654.327 697.773 651.578 701.59 646.602 704.431C641.58 707.316 634.99 708.748 628.401 708.748ZM628.128 678.936C621.629 678.936 615.153 680.344 610.177 683.185C605.383 685.934 602.724 689.57 602.701 693.455C602.678 697.341 605.314 701.022 610.086 703.794C620.061 709.611 636.308 709.679 646.329 703.953C651.123 701.204 653.782 697.568 653.805 693.683C653.827 689.797 651.192 686.116 646.42 683.344C641.398 680.413 634.763 678.936 628.128 678.936Z" fill="#F4A856"/>
<path d="M646.466 704.203C636.354 709.975 620.016 709.907 609.95 704.044C599.884 698.182 599.93 688.729 610.041 682.957C620.153 677.186 636.49 677.254 646.557 683.117C656.623 689.002 656.577 698.432 646.466 704.203Z" fill="url(#paint19_radial_16_2595)"/>
<path d="M610.041 684.207C620.153 678.436 636.491 678.504 646.557 684.366C651.306 687.138 653.805 690.706 654.055 694.319C654.351 690.297 651.874 686.23 646.58 683.117C636.513 677.254 620.176 677.186 610.064 682.957C604.747 686.002 602.202 690.07 602.475 694.092C602.747 690.479 605.27 686.934 610.041 684.207Z" fill="#F4A856"/>
<path d="M649.966 705.067C637.923 711.952 618.449 711.861 606.474 704.862C600.748 701.522 597.771 697.205 597.544 692.842C597.249 697.568 600.225 702.385 606.474 706.021C618.449 713.02 637.923 713.088 649.966 706.226C656.237 702.635 659.259 697.864 659.009 693.114C658.737 697.477 655.714 701.772 649.966 705.067Z" fill="#FCE586"/>
<path d="M680.277 698.613L678.095 700.726C677.164 698 675.278 695.228 672.347 692.592C662.053 683.298 643.011 679.231 629.81 683.503C626.151 684.684 623.334 686.388 621.379 688.411L620.107 685.752L618.993 691.001H619.016C617.926 695.5 619.88 700.681 625.129 705.407C635.422 714.701 654.464 718.768 667.666 714.496C674.255 712.361 678.141 708.543 679.095 704.112L680.277 698.613Z" fill="#F4A856"/>
<path d="M668.825 709.02C655.623 713.292 636.581 709.225 626.287 699.931C615.994 690.638 618.335 679.64 631.536 675.368C644.738 671.096 663.78 675.163 674.073 684.457C684.39 693.751 682.026 704.748 668.825 709.02Z" fill="#FCCC6B"/>
<path d="M668.825 709.02C655.623 713.292 636.581 709.225 626.287 699.931C615.994 690.638 618.335 679.64 631.536 675.368C644.738 671.096 663.78 675.163 674.073 684.457C684.39 693.751 682.026 704.748 668.825 709.02Z" fill="url(#paint20_radial_16_2595)"/>
<path d="M647.215 707.043C640.625 705.657 634.354 702.817 629.946 698.863C625.696 695.023 623.833 690.706 624.674 686.729C625.537 682.73 628.991 679.572 634.445 677.799C645.579 674.186 661.712 677.64 670.415 685.48C674.664 689.32 676.55 693.637 675.686 697.613C674.823 701.613 671.369 704.771 665.916 706.544C660.417 708.339 653.668 708.407 647.215 707.043ZM653.055 677.822C646.692 676.481 640.057 676.549 634.626 678.299C629.355 680.003 626.014 683.025 625.196 686.82C624.378 690.615 626.196 694.75 630.309 698.454C638.876 706.18 654.781 709.588 665.757 706.044C671.028 704.339 674.369 701.317 675.187 697.5C676.005 693.705 674.187 689.57 670.074 685.866C665.757 681.98 659.553 679.185 653.055 677.822Z" fill="#F4A856"/>
<path d="M665.848 706.316C654.782 709.907 638.785 706.475 630.15 698.681C621.516 690.888 623.47 681.662 634.559 678.072C645.625 674.482 661.621 677.913 670.256 685.707C678.891 693.501 676.914 702.726 665.848 706.316Z" fill="url(#paint21_radial_16_2595)"/>
<path d="M634.286 679.276C645.352 675.686 661.348 679.117 669.983 686.911C674.073 690.592 675.777 694.614 675.278 698.182C676.391 694.319 674.8 689.797 670.233 685.684C661.598 677.89 645.602 674.459 634.536 678.049C628.696 679.935 625.401 683.389 624.833 687.388C625.856 683.934 629.037 680.958 634.286 679.276Z" fill="#F4A856"/>
<path d="M669.074 707.861C655.872 712.133 636.831 708.066 626.537 698.772C621.606 694.319 619.584 689.501 620.266 685.184C619.016 689.751 620.925 695.069 626.31 699.908C636.603 709.202 655.645 713.269 668.847 708.998C675.732 706.771 679.64 702.703 680.39 698.022C679.208 702.226 675.391 705.816 669.074 707.861Z" fill="#FCE586"/>
<path d="M633.377 569.185L630.673 570.548C630.628 567.685 629.651 564.458 627.674 561.05C620.698 549.075 603.792 539.395 589.909 539.463C586.069 539.486 582.865 540.236 580.388 541.599L579.979 538.668L577.32 543.326H577.343C574.935 547.28 575.23 552.824 578.797 558.914C585.773 570.889 602.679 580.569 616.563 580.501C623.493 580.478 628.356 578.024 630.605 574.07L633.377 569.185Z" fill="#F4A856"/>
<path d="M633.381 569.174C638.246 560.665 630.239 546.936 615.497 538.509C600.756 530.082 584.862 530.149 579.998 538.658C575.133 547.167 583.141 560.897 597.882 569.324C612.624 577.751 628.517 577.684 633.381 569.174Z" fill="#FCCC6B"/>
<path d="M619.335 575.615C605.474 575.683 588.569 566.003 581.57 554.029C574.594 542.054 580.161 532.283 594.022 532.237C607.883 532.169 624.789 541.849 631.787 553.824C638.786 565.799 633.196 575.547 619.335 575.615Z" fill="url(#paint22_radial_16_2595)"/>
<path d="M599.339 567.185C593.477 563.868 588.364 559.255 585.387 554.142C582.502 549.189 582.024 544.508 584.047 540.986C586.069 537.441 590.341 535.487 596.067 535.464C607.769 535.419 622.085 543.599 627.993 553.71C630.878 558.664 631.356 563.322 629.333 566.867C627.311 570.412 623.039 572.366 617.313 572.389C611.519 572.411 605.065 570.434 599.339 567.185ZM613.768 541.122C608.11 537.918 601.771 535.964 596.067 535.987C590.523 536.009 586.433 537.873 584.501 541.258C582.57 544.621 583.047 549.12 585.842 553.892C591.659 563.868 605.77 571.934 617.313 571.889C622.857 571.866 626.947 570.003 628.879 566.617C630.81 563.254 630.333 558.755 627.538 553.983C624.607 548.939 619.54 544.371 613.768 541.122Z" fill="#F4A856"/>
<path d="M617.312 572.139C605.678 572.184 591.476 564.072 585.614 554.029C579.751 543.962 584.432 535.782 596.066 535.737C607.7 535.691 621.902 543.803 627.765 553.847C633.627 563.89 628.946 572.093 617.312 572.139Z" fill="url(#paint23_radial_16_2595)"/>
<path d="M595.453 536.782C607.087 536.736 621.289 544.848 627.151 554.892C629.923 559.641 630.332 563.981 628.764 567.253C631.014 563.913 630.855 559.118 627.765 553.824C621.902 543.758 607.7 535.646 596.066 535.714C589.931 535.737 585.727 538.032 583.978 541.667C586 538.645 589.954 536.805 595.453 536.782Z" fill="#F4A856"/>
<path d="M619.903 574.593C606.042 574.661 589.136 564.981 582.138 553.006C578.798 547.28 578.343 542.054 580.275 538.145C577.684 542.122 577.911 547.757 581.547 554.006C588.523 565.981 605.429 575.661 619.312 575.592C626.538 575.57 631.514 572.888 633.628 568.639C631.287 572.32 626.538 574.57 619.903 574.593Z" fill="#FCE586"/>
<path d="M627.448 622.992L627.221 626.014C624.721 624.583 621.472 623.765 617.541 623.696C603.68 623.515 586.683 633.058 579.616 644.965C577.662 648.26 576.662 651.395 576.549 654.213L573.845 653.054L576.481 657.735V657.712C578.639 661.802 583.525 664.393 590.591 664.484C604.452 664.665 621.449 655.122 628.516 643.215C632.06 637.262 632.447 631.831 630.22 627.855L627.448 622.992Z" fill="#F4A856"/>
<path d="M625.72 638.353C618.631 650.282 601.657 659.803 587.796 659.621C573.935 659.439 568.436 649.646 575.503 637.716C582.593 625.787 599.567 616.266 613.427 616.448C627.311 616.607 632.81 626.423 625.72 638.353Z" fill="#FCCC6B"/>
<path d="M625.72 638.353C618.631 650.282 601.657 659.803 587.796 659.621C573.935 659.439 568.436 649.646 575.503 637.716C582.593 625.787 599.567 616.266 613.427 616.448C627.311 616.607 632.81 626.423 625.72 638.353Z" fill="url(#paint24_radial_16_2595)"/>
<path d="M608.201 651.145C602.339 654.463 595.749 656.485 589.841 656.417C584.115 656.349 579.866 654.349 577.866 650.782C575.867 647.214 576.389 642.556 579.321 637.625C585.297 627.559 599.68 619.493 611.405 619.629C617.131 619.697 621.38 621.697 623.38 625.264C625.38 628.832 624.857 633.49 621.926 638.421C618.972 643.397 613.95 647.896 608.201 651.145ZM593.272 625.355C587.614 628.559 582.661 632.99 579.752 637.898C576.935 642.647 576.412 647.146 578.321 650.532C580.229 653.918 584.32 655.826 589.841 655.895C601.384 656.031 615.563 648.078 621.471 638.171C624.289 633.422 624.812 628.923 622.903 625.537C620.994 622.151 616.904 620.242 611.382 620.174C605.565 620.083 599.044 622.083 593.272 625.355Z" fill="#F4A856"/>
<path d="M621.698 638.284C615.745 648.282 601.497 656.281 589.841 656.144C578.206 656.008 573.571 647.76 579.524 637.762C585.478 627.764 599.725 619.765 611.382 619.902C623.039 620.061 627.651 628.286 621.698 638.284Z" fill="url(#paint25_radial_16_2595)"/>
<path d="M580.139 638.852C586.092 628.854 600.339 620.856 611.996 620.992C617.495 621.06 621.426 622.946 623.426 625.969C621.722 622.333 617.541 619.992 611.405 619.924C599.771 619.788 585.501 627.786 579.548 637.784C576.412 643.056 576.208 647.828 578.435 651.214C576.89 647.919 577.344 643.579 580.139 638.852Z" fill="#F4A856"/>
<path d="M625.153 637.33C618.063 649.259 601.089 658.78 587.228 658.598C580.593 658.508 575.89 656.213 573.527 652.554C575.617 656.826 580.548 659.53 587.797 659.621C601.657 659.803 618.654 650.259 625.721 638.352C629.425 632.126 629.675 626.491 627.13 622.492C629.038 626.4 628.538 631.627 625.153 637.33Z" fill="#FCE586"/>
<path d="M445.37 623.128C444.325 623.128 443.279 622.856 442.348 622.31L362.727 576.365C362.273 576.092 362 575.638 362 575.115C362 574.593 362.273 574.115 362.727 573.843L433.145 533.192L433.849 534.419L363.432 575.07L443.052 621.106C444.484 621.924 446.256 621.924 447.688 621.106L495.178 593.793C497.064 592.703 499.382 592.725 501.245 593.816L520.696 605.177L519.991 606.404L500.541 595.043C499.109 594.202 497.337 594.202 495.883 595.02L448.392 622.356C447.46 622.878 446.415 623.128 445.37 623.128Z" fill="#2D96D3"/>
<path d="M801.164 555.369L727.042 475.771L652.92 469.773C652.92 469.773 641.014 570.253 727.042 676.822C813.093 669.597 801.164 555.369 801.164 555.369Z" fill="url(#paint26_linear_16_2595)"/>
<path d="M652.943 469.773L636.264 479.407L710.386 485.406L727.064 475.771L652.943 469.773Z" fill="url(#paint27_linear_16_2595)"/>
<path d="M784.508 565.004L710.386 485.406L679.915 482.315L636.264 479.407C636.264 479.407 624.358 579.887 710.386 686.457C796.415 679.231 784.508 565.004 784.508 565.004Z" fill="#222A5D"/>
<path d="M784.508 565.004L710.386 485.406L636.264 479.407C638.355 478.203 638.355 478.203 638.355 478.203L713.453 484.27L787.575 563.867C787.575 563.867 797.528 659.349 733.449 681.253C794.119 657.394 784.508 565.004 784.508 565.004Z" fill="white"/>
<path d="M775.509 566.231L708.863 494.677L681.459 491.905L642.217 489.291C642.217 489.291 631.515 579.637 708.863 675.459C786.211 668.938 775.509 566.231 775.509 566.231Z" fill="url(#paint28_linear_16_2595)"/>
</g>
<defs>
<filter id="filter0_f_16_2595" x="0.0650635" y="0.0969238" width="1437.1" height="1437.1" filterUnits="userSpaceOnUse" color-interpolation-filters="sRGB">
<feFlood flood-opacity="0" result="BackgroundImageFix"/>
<feBlend mode="normal" in="SourceGraphic" in2="BackgroundImageFix" result="shape"/>
<feGaussianBlur stdDeviation="266.129" result="effect1_foregroundBlur_16_2595"/>
</filter>
<linearGradient id="paint0_linear_16_2595" x1="723.935" y1="661.161" x2="723.935" y2="1040.13" gradientUnits="userSpaceOnUse">
<stop offset="0.177469" stop-color="#2D96D3" stop-opacity="0"/>
<stop offset="0.987689" stop-color="#2D96D3" stop-opacity="0.43"/>
</linearGradient>
<linearGradient id="paint1_linear_16_2595" x1="619.96" y1="489.204" x2="1075.52" y2="489.204" gradientUnits="userSpaceOnUse">
<stop stop-color="#1CA0C2"/>
<stop offset="0.522" stop-color="#1CA0C2"/>
<stop offset="1" stop-color="#1CA0C2"/>
</linearGradient>
<linearGradient id="paint2_linear_16_2595" x1="582.73" y1="341.66" x2="890.528" y2="499.244" gradientUnits="userSpaceOnUse">
<stop stop-color="#59BDEF"/>
<stop offset="1" stop-color="#7BDAFF"/>
</linearGradient>
<linearGradient id="paint3_linear_16_2595" x1="664.551" y1="724.453" x2="747.805" y2="279.943" gradientUnits="userSpaceOnUse">
<stop stop-color="#222A5D"/>
<stop offset="0.352461" stop-color="#222A5D"/>
<stop offset="1" stop-color="#2D96D3"/>
</linearGradient>
<radialGradient id="paint4_radial_16_2595" cx="0" cy="0" r="1" gradientUnits="userSpaceOnUse" gradientTransform="translate(583.262 491.942) rotate(-51.5165) scale(43.9188 43.9188)">
<stop stop-color="#FCE586"/>
<stop offset="0.2273" stop-color="#FCDB7B"/>
<stop offset="0.6161" stop-color="#FCD06F"/>
<stop offset="1" stop-color="#FCCC6B"/>
</radialGradient>
<radialGradient id="paint5_radial_16_2595" cx="0" cy="0" r="1" gradientUnits="userSpaceOnUse" gradientTransform="translate(627.287 499.734) rotate(-51.5165) scale(104.475 104.475)">
<stop stop-color="#FCE586"/>
<stop offset="0.2273" stop-color="#FCDB7B"/>
<stop offset="0.6161" stop-color="#FCD06F"/>
<stop offset="1" stop-color="#FCCC6B"/>
</radialGradient>
<radialGradient id="paint6_radial_16_2595" cx="0" cy="0" r="1" gradientUnits="userSpaceOnUse" gradientTransform="translate(584.9 672.131) rotate(-17.0741) scale(43.9185 43.9185)">
<stop stop-color="#FCE586"/>
<stop offset="0.2273" stop-color="#FCDB7B"/>
<stop offset="0.6161" stop-color="#FCD06F"/>
<stop offset="1" stop-color="#FCCC6B"/>
</radialGradient>
<radialGradient id="paint7_radial_16_2595" cx="0" cy="0" r="1" gradientUnits="userSpaceOnUse" gradientTransform="translate(616.8 703.456) rotate(-17.0741) scale(104.475 104.475)">
<stop stop-color="#FCE586"/>
<stop offset="0.2273" stop-color="#FCDB7B"/>
<stop offset="0.6161" stop-color="#FCD06F"/>
<stop offset="1" stop-color="#FCCC6B"/>
</radialGradient>
<radialGradient id="paint8_radial_16_2595" cx="0" cy="0" r="1" gradientUnits="userSpaceOnUse" gradientTransform="translate(590.179 664.596) rotate(-17.0741) scale(43.9188 43.9187)">
<stop stop-color="#FCE586"/>
<stop offset="0.2273" stop-color="#FCDB7B"/>
<stop offset="0.6161" stop-color="#FCD06F"/>
<stop offset="1" stop-color="#FCCC6B"/>
</radialGradient>
<radialGradient id="paint9_radial_16_2595" cx="0" cy="0" r="1" gradientUnits="userSpaceOnUse" gradientTransform="translate(622.079 695.921) rotate(-17.0741) scale(104.475 104.475)">
<stop stop-color="#FCE586"/>
<stop offset="0.2273" stop-color="#FCDB7B"/>
<stop offset="0.6161" stop-color="#FCD06F"/>
<stop offset="1" stop-color="#FCCC6B"/>
</radialGradient>
<radialGradient id="paint10_radial_16_2595" cx="0" cy="0" r="1" gradientUnits="userSpaceOnUse" gradientTransform="translate(630.705 702.046) rotate(-17.0741) scale(43.9185 43.9185)">
<stop stop-color="#FCE586"/>
<stop offset="0.2273" stop-color="#FCDB7B"/>
<stop offset="0.6161" stop-color="#FCD06F"/>
<stop offset="1" stop-color="#FCCC6B"/>
</radialGradient>
<radialGradient id="paint11_radial_16_2595" cx="0" cy="0" r="1" gradientUnits="userSpaceOnUse" gradientTransform="translate(662.605 733.371) rotate(-17.0741) scale(104.475)">
<stop stop-color="#FCE586"/>
<stop offset="0.2273" stop-color="#FCDB7B"/>
<stop offset="0.6161" stop-color="#FCD06F"/>
<stop offset="1" stop-color="#FCCC6B"/>
</radialGradient>
<radialGradient id="paint12_radial_16_2595" cx="0" cy="0" r="1" gradientUnits="userSpaceOnUse" gradientTransform="translate(569.205 712.712) rotate(-17.0741) scale(43.9185 43.9185)">
<stop stop-color="#FCE586"/>
<stop offset="0.2273" stop-color="#FCDB7B"/>
<stop offset="0.6161" stop-color="#FCD06F"/>
<stop offset="1" stop-color="#FCCC6B"/>
</radialGradient>
<radialGradient id="paint13_radial_16_2595" cx="0" cy="0" r="1" gradientUnits="userSpaceOnUse" gradientTransform="translate(601.106 744.037) rotate(-17.0741) scale(104.475 104.475)">
<stop stop-color="#FCE586"/>
<stop offset="0.2273" stop-color="#FCDB7B"/>
<stop offset="0.6161" stop-color="#FCD06F"/>
<stop offset="1" stop-color="#FCCC6B"/>
</radialGradient>
<radialGradient id="paint14_radial_16_2595" cx="0" cy="0" r="1" gradientUnits="userSpaceOnUse" gradientTransform="translate(598.303 701.404) rotate(-17.0741) scale(43.9185 43.9185)">
<stop stop-color="#FCE586"/>
<stop offset="0.2273" stop-color="#FCDB7B"/>
<stop offset="0.6161" stop-color="#FCD06F"/>
<stop offset="1" stop-color="#FCCC6B"/>
</radialGradient>
<radialGradient id="paint15_radial_16_2595" cx="0" cy="0" r="1" gradientUnits="userSpaceOnUse" gradientTransform="translate(630.203 732.729) rotate(-17.0741) scale(104.476 104.476)">
<stop stop-color="#FCE586"/>
<stop offset="0.2273" stop-color="#FCDB7B"/>
<stop offset="0.6161" stop-color="#FCD06F"/>
<stop offset="1" stop-color="#FCCC6B"/>
</radialGradient>
<radialGradient id="paint16_radial_16_2595" cx="0" cy="0" r="1" gradientUnits="userSpaceOnUse" gradientTransform="translate(606.256 695.258) rotate(-17.0741) scale(43.9185 43.9185)">
<stop stop-color="#FCE586"/>
<stop offset="0.2273" stop-color="#FCDB7B"/>
<stop offset="0.6161" stop-color="#FCD06F"/>
<stop offset="1" stop-color="#FCCC6B"/>
</radialGradient>
<radialGradient id="paint17_radial_16_2595" cx="0" cy="0" r="1" gradientUnits="userSpaceOnUse" gradientTransform="translate(638.156 726.582) rotate(-17.0741) scale(104.476 104.476)">
<stop stop-color="#FCE586"/>
<stop offset="0.2273" stop-color="#FCDB7B"/>
<stop offset="0.6161" stop-color="#FCD06F"/>
<stop offset="1" stop-color="#FCCC6B"/>
</radialGradient>
<radialGradient id="paint18_radial_16_2595" cx="0" cy="0" r="1" gradientUnits="userSpaceOnUse" gradientTransform="translate(610.47 683.436) rotate(-17.0741) scale(43.9185 43.9185)">
<stop stop-color="#FCE586"/>
<stop offset="0.2273" stop-color="#FCDB7B"/>
<stop offset="0.6161" stop-color="#FCD06F"/>
<stop offset="1" stop-color="#FCCC6B"/>
</radialGradient>
<radialGradient id="paint19_radial_16_2595" cx="0" cy="0" r="1" gradientUnits="userSpaceOnUse" gradientTransform="translate(642.37 714.76) rotate(-17.0741) scale(104.475 104.475)">
<stop stop-color="#FCE586"/>
<stop offset="0.2273" stop-color="#FCDB7B"/>
<stop offset="0.6161" stop-color="#FCD06F"/>
<stop offset="1" stop-color="#FCCC6B"/>
</radialGradient>
<radialGradient id="paint20_radial_16_2595" cx="0" cy="0" r="1" gradientUnits="userSpaceOnUse" gradientTransform="translate(634.852 678.608) rotate(-5.26135) scale(43.9185 43.9185)">
<stop stop-color="#FCE586"/>
<stop offset="0.2273" stop-color="#FCDB7B"/>
<stop offset="0.6161" stop-color="#FCD06F"/>
<stop offset="1" stop-color="#FCCC6B"/>
</radialGradient>
<radialGradient id="paint21_radial_16_2595" cx="0" cy="0" r="1" gradientUnits="userSpaceOnUse" gradientTransform="translate(659.665 715.799) rotate(-5.26135) scale(104.475 104.476)">
<stop stop-color="#FCE586"/>
<stop offset="0.2273" stop-color="#FCDB7B"/>
<stop offset="0.6161" stop-color="#FCD06F"/>
<stop offset="1" stop-color="#FCCC6B"/>
</radialGradient>
<radialGradient id="paint22_radial_16_2595" cx="0" cy="0" r="1" gradientUnits="userSpaceOnUse" gradientTransform="translate(596.191 536.326) rotate(12.4213) scale(43.9187 43.9187)">
<stop stop-color="#FCE586"/>
<stop offset="0.2273" stop-color="#FCDB7B"/>
<stop offset="0.6161" stop-color="#FCD06F"/>
<stop offset="1" stop-color="#FCCC6B"/>
</radialGradient>
<radialGradient id="paint23_radial_16_2595" cx="0" cy="0" r="1" gradientUnits="userSpaceOnUse" gradientTransform="translate(608.533 579.297) rotate(12.4213) scale(104.475 104.475)">
<stop stop-color="#FCE586"/>
<stop offset="0.2273" stop-color="#FCDB7B"/>
<stop offset="0.6161" stop-color="#FCD06F"/>
<stop offset="1" stop-color="#FCCC6B"/>
</radialGradient>
<radialGradient id="paint24_radial_16_2595" cx="0" cy="0" r="1" gradientUnits="userSpaceOnUse" gradientTransform="translate(580.132 637.974) rotate(-46.6167) scale(43.9187)">
<stop stop-color="#FCE586"/>
<stop offset="0.2273" stop-color="#FCDB7B"/>
<stop offset="0.6161" stop-color="#FCD06F"/>
<stop offset="1" stop-color="#FCCC6B"/>
</radialGradient>
<radialGradient id="paint25_radial_16_2595" cx="0" cy="0" r="1" gradientUnits="userSpaceOnUse" gradientTransform="translate(623.33 649.497) rotate(-46.6167) scale(104.475)">
<stop stop-color="#FCE586"/>
<stop offset="0.2273" stop-color="#FCDB7B"/>
<stop offset="0.6161" stop-color="#FCD06F"/>
<stop offset="1" stop-color="#FCCC6B"/>
</radialGradient>
<linearGradient id="paint26_linear_16_2595" x1="705.614" y1="553.988" x2="928.454" y2="622.368" gradientUnits="userSpaceOnUse">
<stop stop-color="#2573BA"/>
<stop offset="0.907" stop-color="#0364AE"/>
<stop offset="1" stop-color="#0063AD"/>
</linearGradient>
<linearGradient id="paint27_linear_16_2595" x1="727.054" y1="477.593" x2="636.257" y2="477.593" gradientUnits="userSpaceOnUse">
<stop stop-color="#0063AD"/>
<stop offset="1" stop-color="#2573BA"/>
</linearGradient>
<linearGradient id="paint28_linear_16_2595" x1="694.437" y1="675.279" x2="713.581" y2="482.812" gradientUnits="userSpaceOnUse">
<stop stop-color="#222A5D"/>
<stop offset="0.352461" stop-color="#222A5D"/>
<stop offset="1" stop-color="#2D96D3"/>
</linearGradient>
<clipPath id="clip0_16_2595">
<rect width="534.803" height="532.258" fill="white" transform="translate(362 253.452)"/>
</clipPath>
</defs>
</svg>
