<svg width="56" height="56" viewBox="0 0 56 56" fill="none" xmlns="http://www.w3.org/2000/svg">
<rect width="56" height="56" rx="16" fill="#2D96D3"/>
<g clip-path="url(#clip0_5_2259)">
<path d="M40.8 35.7184V32C40.8 30.5148 40.21 29.0904 39.1598 28.0402C38.1096 26.99 36.6852 26.4 35.2 26.4H32C31.3634 26.4 30.753 26.1472 30.3029 25.6971C29.8528 25.247 29.6 24.6365 29.6 24V20.2816C30.2675 19.9767 30.8335 19.4865 31.2306 18.8694C31.6277 18.2522 31.8392 17.5339 31.84 16.8C31.84 15.7816 31.4354 14.8049 30.7152 14.0847C29.9951 13.3646 29.0184 12.96 28 12.96C26.9815 12.96 26.0048 13.3646 25.2847 14.0847C24.5645 14.8049 24.16 15.7816 24.16 16.8C24.16 18.3472 25.0816 19.6736 26.4 20.2816V24C26.4 24.6365 26.1471 25.247 25.697 25.6971C25.2469 26.1472 24.6365 26.4 24 26.4H20.8C19.3147 26.4 17.8904 26.99 16.8402 28.0402C15.79 29.0904 15.2 30.5148 15.2 32V35.7184C14.4028 36.082 13.7542 36.7076 13.3622 37.4912C12.9702 38.2747 12.8584 39.1689 13.0454 40.0249C13.2325 40.8808 13.7071 41.6469 14.3902 42.1955C15.0734 42.7441 15.9238 43.0422 16.8 43.04C17.6752 43.0405 18.5243 42.7415 19.2062 42.1928C19.8881 41.6441 20.3618 40.8787 20.5487 40.0236C20.7355 39.1685 20.6243 38.2753 20.2334 37.4921C19.8426 36.709 19.1956 36.0831 18.4 35.7184V32C18.4 31.3635 18.6528 30.7531 19.1029 30.303C19.553 29.8529 20.1634 29.6 20.8 29.6H24C24.8624 29.6 25.6704 29.3888 26.4 29.04V35.7184C25.6028 36.082 24.9542 36.7076 24.5622 37.4912C24.1702 38.2747 24.0584 39.1689 24.2454 40.0249C24.4325 40.8808 24.9071 41.6469 25.5902 42.1955C26.2734 42.7441 27.1238 43.0422 28 43.04C28.8752 43.0405 29.7243 42.7415 30.4062 42.1928C31.0881 41.6441 31.5618 40.8787 31.7487 40.0236C31.9355 39.1685 31.8243 38.2753 31.4334 37.4921C31.0426 36.709 30.3956 36.0831 29.6 35.7184V29.04C30.3296 29.3888 31.1376 29.6 32 29.6H35.2C35.8365 29.6 36.4469 29.8529 36.897 30.303C37.3471 30.7531 37.6 31.3635 37.6 32V35.7184C36.9324 36.0233 36.3664 36.5135 35.9693 37.1307C35.5722 37.7479 35.3607 38.4661 35.36 39.2C35.36 40.2185 35.7645 41.1952 36.4847 41.9153C37.2048 42.6355 38.1815 43.04 39.2 43.04C40.2184 43.04 41.1951 42.6355 41.9152 41.9153C42.6354 41.1952 43.04 40.2185 43.04 39.2C43.04 37.6528 42.12 36.3264 40.8 35.7184ZM28 14.584C28.5872 14.584 29.1505 14.8173 29.5658 15.2326C29.9811 15.6479 30.2144 16.2111 30.2144 16.7984C30.2144 17.3857 29.9811 17.949 29.5658 18.3642C29.1505 18.7795 28.5872 19.0128 28 19.0128C27.4127 19.0128 26.8494 18.7795 26.4341 18.3642C26.0189 17.949 25.7856 17.3857 25.7856 16.7984C25.7856 16.2111 26.0189 15.6479 26.4341 15.2326C26.8494 14.8173 27.4127 14.584 28 14.584ZM16.8 41.416C16.5089 41.416 16.2208 41.3587 15.9519 41.2473C15.6831 41.136 15.4388 40.9727 15.233 40.767C15.0272 40.5612 14.864 40.3169 14.7526 40.048C14.6413 39.7792 14.584 39.491 14.584 39.2C14.584 38.909 14.6413 38.6209 14.7526 38.352C14.864 38.0831 15.0272 37.8388 15.233 37.6331C15.4388 37.4273 15.6831 37.2641 15.9519 37.1527C16.2208 37.0413 16.5089 36.984 16.8 36.984C17.3877 36.984 17.9513 37.2175 18.3669 37.6331C18.7825 38.0487 19.016 38.6123 19.016 39.2C19.016 39.7877 18.7825 40.3514 18.3669 40.767C17.9513 41.1826 17.3877 41.416 16.8 41.416ZM28 41.416C27.7089 41.416 27.4208 41.3587 27.1519 41.2473C26.8831 41.136 26.6388 40.9727 26.433 40.767C26.2272 40.5612 26.064 40.3169 25.9526 40.048C25.8413 39.7792 25.784 39.491 25.784 39.2C25.784 38.909 25.8413 38.6209 25.9526 38.352C26.064 38.0831 26.2272 37.8388 26.433 37.6331C26.6388 37.4273 26.8831 37.2641 27.1519 37.1527C27.4208 37.0413 27.7089 36.984 28 36.984C28.5877 36.984 29.1513 37.2175 29.5669 37.6331C29.9825 38.0487 30.216 38.6123 30.216 39.2C30.216 39.7877 29.9825 40.3514 29.5669 40.767C29.1513 41.1826 28.5877 41.416 28 41.416ZM39.2 41.416C38.9089 41.416 38.6208 41.3587 38.3519 41.2473C38.0831 41.136 37.8388 40.9727 37.633 40.767C37.4272 40.5612 37.264 40.3169 37.1526 40.048C37.0413 39.7792 36.984 39.491 36.984 39.2C36.984 38.909 37.0413 38.6209 37.1526 38.352C37.264 38.0831 37.4272 37.8388 37.633 37.6331C37.8388 37.4273 38.0831 37.2641 38.3519 37.1527C38.6208 37.0413 38.9089 36.984 39.2 36.984C39.7877 36.984 40.3513 37.2175 40.7669 37.6331C41.1825 38.0487 41.416 38.6123 41.416 39.2C41.416 39.7877 41.1825 40.3514 40.7669 40.767C40.3513 41.1826 39.7877 41.416 39.2 41.416Z" fill="white"/>
</g>
<defs>
<clipPath id="clip0_5_2259">
<rect width="32" height="32" fill="white" transform="translate(12 12)"/>
</clipPath>
</defs>
</svg>
