<svg width="56" height="56" viewBox="0 0 56 56" fill="none" xmlns="http://www.w3.org/2000/svg">
<rect width="56" height="56" rx="16" fill="#2D96D3"/>
<g clip-path="url(#clip0_5_2248)">
<path d="M34.2857 25.4286L28.2571 30.0143C28.1714 30.0072 28.0857 30 27.9999 30C26.7357 30 25.7142 31.0215 25.7142 32.2857C25.7142 33.55 26.7357 34.5715 27.9999 34.5715C29.2642 34.5715 30.2857 33.55 30.2857 32.2857C30.2857 32.2 30.2785 32.1143 30.2714 32.0286L34.8571 26L34.2857 25.4286Z" fill="white"/>
<path d="M28 14C19.1643 14 12 21.1643 12 30C12 32.4572 12.5571 34.7786 13.5429 36.8572H16.1214C15.0214 34.9572 14.3929 32.8143 14.3 30.5714H16.5714V29.4286H14.3C14.3857 27.3714 14.9214 25.3929 15.8571 23.6143L17.8214 24.75L18.3929 23.7571L16.4286 22.6286C16.9571 21.8 17.5857 21.0143 18.3 20.3C19.0286 19.5786 19.8214 18.9429 20.6643 18.4071L21.7929 20.3571L22.7857 19.7857L21.6571 17.8357C23.4286 16.9071 25.3857 16.3857 27.4286 16.3V18.5714H28.5714V16.3C30.6143 16.3857 32.5714 16.9143 34.3429 17.8357L33.2214 19.7857L34.2143 20.3571L35.3429 18.4071C36.1857 18.9429 36.9786 19.5786 37.7071 20.3C38.4214 21.0143 39.0429 21.7929 39.5786 22.6286L37.6214 23.7571L38.1929 24.75L40.1571 23.6143C41.0929 25.3929 41.6286 27.3714 41.7143 29.4286H39.4286V30.5714H41.7C41.6071 32.8143 40.9786 34.9572 39.8786 36.8572H42.4571C43.4429 34.7786 44 32.4572 44 30C44 21.1643 36.8357 14 28 14Z" fill="white"/>
</g>
<defs>
<clipPath id="clip0_5_2248">
<rect width="32" height="22.8572" fill="white" transform="translate(12 14)"/>
</clipPath>
</defs>
</svg>
