<svg width="56" height="56" viewBox="0 0 56 56" fill="none" xmlns="http://www.w3.org/2000/svg">
<rect width="56" height="56" rx="16" fill="#2D96D3"/>
<g clip-path="url(#clip0_5_2268)">
<path d="M25 44H16C14.9391 44 13.9217 43.5786 13.1716 42.8284C12.4214 42.0783 12 41.0609 12 40V22C12 20.9391 12.4214 19.9217 13.1716 19.1716C13.9217 18.4214 14.9391 18 16 18H25C26.0609 18 27.0783 18.4214 27.8284 19.1716C28.5786 19.9217 29 20.9391 29 22V40C29 41.0609 28.5786 42.0783 27.8284 42.8284C27.0783 43.5786 26.0609 44 25 44ZM16 20C15.4696 20 14.9609 20.2107 14.5858 20.5858C14.2107 20.9609 14 21.4696 14 22V40C14 40.5304 14.2107 41.0391 14.5858 41.4142C14.9609 41.7893 15.4696 42 16 42H25C25.5304 42 26.0391 41.7893 26.4142 41.4142C26.7893 41.0391 27 40.5304 27 40V22C27 21.4696 26.7893 20.9609 26.4142 20.5858C26.0391 20.2107 25.5304 20 25 20H16Z" fill="white"/>
<path d="M20.5 41C20.3028 40.9992 20.1103 40.9401 19.9466 40.8301C19.7829 40.7202 19.6554 40.5643 19.58 40.3821C19.5047 40.1999 19.4849 39.9995 19.5231 39.8061C19.5614 39.6126 19.6559 39.4348 19.795 39.295C19.9823 39.1087 20.2358 39.0042 20.5 39.0042C20.7641 39.0042 21.0176 39.1087 21.205 39.295C21.344 39.4348 21.4385 39.6126 21.4768 39.8061C21.515 39.9995 21.4952 40.1999 21.4199 40.3821C21.3445 40.5643 21.217 40.7202 21.0533 40.8301C20.8896 40.9401 20.6971 40.9992 20.5 41ZM40 40H28V38H40C40.5304 38 41.0391 37.7893 41.4142 37.4142C41.7892 37.0391 42 36.5304 42 36V16C42 15.4696 41.7892 14.9609 41.4142 14.5858C41.0391 14.2107 40.5304 14 40 14H24.5C23.9695 14 23.4608 14.2107 23.0857 14.5858C22.7107 14.9609 22.5 15.4696 22.5 16V19H20.5V16C20.5 14.9391 20.9214 13.9217 21.6715 13.1716C22.4217 12.4214 23.4391 12 24.5 12H40C41.0608 12 42.0782 12.4214 42.8284 13.1716C43.5785 13.9217 44 14.9391 44 16V36C44 37.0609 43.5785 38.0783 42.8284 38.8284C42.0782 39.5786 41.0608 40 40 40Z" fill="white"/>
<path d="M32.25 37C31.9848 37 31.7304 36.8946 31.5429 36.7071C31.3554 36.5196 31.25 36.2652 31.25 36C31.2426 35.9352 31.2426 35.8698 31.25 35.805C31.2629 35.7419 31.2813 35.68 31.305 35.62C31.3308 35.5587 31.3626 35.5 31.4 35.445C31.4345 35.3894 31.4766 35.339 31.525 35.295C31.7124 35.1087 31.9658 35.0042 32.23 35.0042C32.4942 35.0042 32.7476 35.1087 32.935 35.295C33.0729 35.4336 33.1671 35.6096 33.2061 35.8012C33.245 35.9928 33.2269 36.1917 33.154 36.3731C33.0811 36.5545 32.9566 36.7106 32.7959 36.822C32.6353 36.9334 32.4455 36.9953 32.25 37ZM34.5 26C34.2348 26 33.9804 25.8946 33.7929 25.7071C33.6054 25.5196 33.5 25.2652 33.5 25V22.5H31C30.7348 22.5 30.4804 22.3946 30.2929 22.2071C30.1054 22.0196 30 21.7652 30 21.5C30 21.2348 30.1054 20.9804 30.2929 20.7929C30.4804 20.6054 30.7348 20.5 31 20.5H34.5C34.7652 20.5 35.0196 20.6054 35.2071 20.7929C35.3946 20.9804 35.5 21.2348 35.5 21.5V25C35.5 25.2652 35.3946 25.5196 35.2071 25.7071C35.0196 25.8946 34.7652 26 34.5 26ZM25 35.5H21.5C21.2348 35.5 20.9804 35.3946 20.7929 35.2071C20.6054 35.0196 20.5 34.7652 20.5 34.5V31C20.5 30.7348 20.6054 30.4804 20.7929 30.2929C20.9804 30.1054 21.2348 30 21.5 30C21.7652 30 22.0196 30.1054 22.2071 30.2929C22.3946 30.4804 22.5 30.7348 22.5 31V33.5H25C25.2652 33.5 25.5196 33.6054 25.7071 33.7929C25.8946 33.9804 26 34.2348 26 34.5C26 34.7652 25.8946 35.0196 25.7071 35.2071C25.5196 35.3946 25.2652 35.5 25 35.5Z" fill="white"/>
<path d="M21.304 33.287L33.8 21.0365L35.2 22.4645L22.7045 34.715L21.304 33.287Z" fill="white"/>
</g>
<defs>
<clipPath id="clip0_5_2268">
<rect width="32" height="32" fill="white" transform="translate(12 12)"/>
</clipPath>
</defs>
</svg>
